<?xml version="1.0" encoding="UTF-8"?>
<svg width="512" height="512" enable-background="new 0 0 513.426 513.426" version="1.1" viewBox="0 0 513.43 513.43" xmlns="http://www.w3.org/2000/svg">
 <path d="m356.38 119.89c-38.365 23.374-88.414 11.222-111.79-27.143-0.369-0.606-0.177-1.397 0.429-1.767l136.74-83.307c0.606-0.369 1.397-0.177 1.767 0.429 23.374 38.365 11.221 88.414-27.144 111.79z" fill="#bbec6c"/>
 <path d="m395.41 50.348c0 27.444-13.881 54.219-39.022 69.537-27.793 16.933-61.698 15.228-87.178-1.576 22.039 7.489 47.119 5.525 68.549-7.539 25.15-15.317 39.032-42.103 39.032-69.547 0-9.254-1.576-18.588-4.837-27.583l9.803-5.973c0.608-0.369 1.396-0.17 1.765 0.429 8.059 13.223 11.888 27.832 11.888 42.252z" fill="#a2e62e"/>
 <path d="m327.02 71.693c-12.162 7.41-28.028 3.557-35.438-8.605l-0.212-0.348 44.043-26.834 0.212 0.348c7.409 12.163 3.557 28.029-8.605 35.439z" fill="#00c27a"/>
 <path d="m316.88 64.983h-190.84c-4.449 0-8.056 3.607-8.056 8.056v390.53c0 4.449 3.607 8.056 8.056 8.056h190.84c4.449 0 8.056-3.607 8.056-8.056v-390.53c0-4.449-3.607-8.056-8.056-8.056z" fill="#c8effe"/>
 <path d="m324.94 73.035v390.53c0 4.448-3.61 8.058-8.058 8.058h-20.852c4.448 0 8.058-3.61 8.058-8.058v-390.53c0-4.448-3.61-8.048-8.058-8.048h20.852c4.448 0 8.058 3.6 8.058 8.048z" fill="#99e6fc"/>
 <path d="m295.24 505.95h-147.56c-4.885 0-8.846-3.96-8.846-8.846v-25.472h165.25v25.472c0 4.886-3.961 8.846-8.846 8.846z" fill="#62dbfb"/>
 <path d="m304.09 471.63v25.469c0 4.886-3.959 8.845-8.845 8.845h-20.842c4.886 0 8.845-3.959 8.845-8.845v-25.469z" fill="#01d0fb"/>
 <g transform="matrix(1 .24905 0 .5449 -11.061 198.06)" stroke-width="1.3547">
  <path d="m266.68 366.68c8.517-8.964 15.347-19.627 20.356-30.886 7.825-17.59 10.465-37.117 6.399-55.949-0.45-2.083-2.089-3.708-4.177-4.137-18.614-3.824-37.855-1.126-55.187 6.644-14.092 6.316-27.806 15.532-37.2 28.023-14.96 19.894-24.062 45.148-21.211 70.351 0.271 2.399 0.646 4.787 1.121 7.155 0.079 0.392 0.489 2.076 0.888 3.693 0.506 2.052 2.174 3.616 4.254 3.987 5.304 0.947 10.697 1.39 16.086 1.327 25.267-0.295 51.189-11.809 68.671-30.208z" fill="#00c27a" stroke-width="1.8352"/>
  <path d="m287.04 335.8c-5.008 11.256-11.841 21.918-20.356 30.887-17.484 18.391-43.413 29.909-68.677 30.202-5.391 0.071-10.783-0.373-16.083-1.32-2.086-0.373-3.749-1.935-4.253-3.991-0.403-1.622-0.816-3.305-0.887-3.698-0.03-0.141-0.05-0.272-0.08-0.413 1.693 0.081 3.396 0.111 5.099 0.091 25.264-0.292 51.183-11.811 68.667-30.202 8.515-8.969 15.348-19.631 20.356-30.887 7.326-16.456 10.108-34.605 7.105-52.281 3.789 0.242 7.568 0.746 11.327 1.522 2.086 0.433 3.729 2.056 4.182 4.142 4.06 18.833 1.42 38.353-6.4 55.948z" fill="#08b865" stroke-width="1.8352"/>
 </g>
 <path d="m360.85 83.207-4.768-3.856c-3.211-2.596-7.921-2.1-10.519 1.112-2.597 3.211-2.1 7.921 1.112 10.519l4.768 3.856c1.384 1.119 3.047 1.664 4.699 1.664 2.18 0 4.342-0.949 5.82-2.776 2.598-3.212 2.1-7.922-1.112-10.519z"/>
 <path d="m364.56 46.908-6.041 1.051c-4.07 0.708-6.795 4.581-6.087 8.65 0.633 3.636 3.791 6.199 7.36 6.199 0.425 0 0.857-0.036 1.29-0.112l6.041-1.051c4.07-0.708 6.795-4.581 6.087-8.65-0.707-4.07-4.58-6.795-8.65-6.087z"/>
 <path transform="scale(1.0028)" d="m381.71 0.0078125c-1.7105-0.072408-3.4026 0.36127-4.8984 1.2715l-92.023 56.064h-99.951c-4.1195 0-7.457 3.3385-7.457 7.457 0 4.1185 3.3385 7.459 7.457 7.459h131.16c0.31712 0 0.57617 0.2581 0.57617 0.57422v389.45c0 0.31711-0.25905 0.57617-0.57617 0.57617h-190.31c-0.31711 0-0.57422-0.25906-0.57422-0.57617 0 0-8e-5 -289.07 4e-3 -289.07l-4e-3 -35.455v-64.926c0-0.31712 0.25711-0.57617 0.57422-0.57617h24.459c4.1195 0 7.457-3.3385 7.457-7.457 0-4.1185-3.3385-7.459-7.457-7.459h-24.459c-8.5422 0-15.492 6.95-15.492 15.492v389.45c0 8.5422 6.95 15.492 15.492 15.492h5.3008v17.943c0 8.977 7.3023 16.279 16.279 16.279h147.15c8.977 0 16.279-7.3023 16.279-16.279v-17.943h5.2988c8.5422 0 15.492-6.95 15.492-15.492v-325.32c9.689-2.0523 19.068-5.7309 27.775-11.037 20.205-12.31 34.408-31.751 39.99-54.742 5.5834-22.991 1.8771-46.782-10.432-66.984-1.2146-1.9944-3.1327-3.3968-5.4023-3.9473-0.56717-0.13762-1.1408-0.21805-1.7109-0.24219zm-2.6289 17.355c7.8033 15.558 9.8312 33.193 5.6777 50.299-4.6431 19.119-16.453 35.287-33.254 45.523-6.3134 3.8463-13.051 6.6631-20.014 8.4551v-44.752c6.7662-4.6291 11.522-11.5 13.471-19.527 1.5248-6.2785 1.1914-12.713-0.88282-18.672zm-48.297 29.426c0.35202 2.3175 0.25205 4.7063-0.31836 7.0527-0.69905 2.879-2.0605 5.4794-3.9492 7.6523-2.7653-2.5669-6.4578-4.1504-10.52-4.1504h-2.5371l16.84-10.26zm-184.88 430.99h149.88v17.943c0 0.75191-0.61138 1.3633-1.3633 1.3633h-147.15c-0.75191 0-1.3633-0.61137-1.3633-1.3633z" stroke-width=".99722"/>
 <path d="m279.7 416.72c-19.655-7.0955-40.317-10.894-59.752-10.988-17.065-0.0821-30.938 2.182-40.117 6.5481-17.504 8.3243-25.553 20.966-22.665 35.597 0.455 2.3022 1.214 4.5973 2.179 6.9715 1.212 2.9812 5.216 6.0228 10.2 7.7491 5.387 1.8658 10.9 3.5043 16.403 4.8748 0.362 0.0902 0.724 0.17931 1.086 0.26747 27.286 6.6224 54.951 6.8854 74.006 0.70364 4.734-1.5357 9.102-3.4998 12.982-5.8378 2.226-1.3413 1.211-4.1143-2.269-6.1945-3.477-2.0784-8.104-2.6782-10.331-1.3366-3.369 2.0299-7.146 3.7298-11.227 5.0538-16.086 5.2184-40.355 4.9953-63.336-0.5822-4.457-1.0822-8.938-2.377-13.325-3.8543-0.684-1.6874-1.182-3.3954-1.505-5.0289-2.421-12.265 4.78-23.384 19.757-30.507 7.664-3.6444 19.518-5.5335 34.281-5.4624 16.106 0.0771 33.113 3.1101 49.272 8.7802 2.199 6.6206 1.909 12.829-0.864 18.464-0.96 1.9503 1.519 4.7664 5.537 6.2902 4.018 1.5211 8.052 1.1777 9.013-0.77241 3.409-6.9278 3.631-14.62 0.658-22.863-1.076-2.9816-4.994-6.0716-9.983-7.8732z"/>
 <path d="m256.5 429.41c-2.921-2.3192-7.656-3.4984-10.577-2.6342l-10.472 3.0981-0.649-2.8442c-0.54-2.3659-4.293-4.8694-8.393-5.5979-4.095-0.72562-6.977 0.60435-6.437 2.9702l2.149 9.415-7.764 2.297-0.649-2.8442c-0.54-2.3659-4.296-4.8717-8.393-5.5979-4.095-0.72563-6.977 0.60434-6.437 2.9702l2.15 9.4152-9.923 2.9357c-2.921 0.86417-2.921 3.4443 0 5.7634 1.46 1.1592 3.374 2.0342 5.289 2.5111s3.828 0.5556 5.289 0.12336l9.923-2.9357 16.296 5.2301c0.332 0.10669 0.661 0.20003 0.987 0.28122 3.695 0.92026 6.909 0.22823 7.406-1.6985 0.54-2.0969-2.342-4.8624-6.437-6.1765l-4.923-1.5797 7.764-2.297 16.296 5.2301c0.332 0.10669 0.661 0.20003 0.987 0.28122 3.695 0.92025 6.91 0.22847 7.406-1.6985 0.54-2.0969-2.342-4.8624-6.437-6.1765l-4.923-1.5797 10.472-3.0981c2.921-0.86363 2.921-3.4443 0-5.7634z"/>
</svg>
